# xmcd
#
# Track frame offsets:
# 150
# 1285
# 17755
# 29970
# 55205
# 71500
# 87435
# 111915
# 124245
# 136995
# 155545
# 169500
# 196410
# 198660
# 206705
# 213230
# 219155
# 226975
# 233480
# 239475
# 257055
# 261260
# 269580
# 278755
# 298025
# 300970
# 317340
# 333890
# 349740
#
# Disc length: 4705 seconds
#
#
# Revision: 0
# Processed by: cddbd v1.5.1PL0 Copyright (c) Steve Scherf et al.
# Submitted via: FreeRIP 2.90 
#
DISCID=ae125f1d
DTITLE=Duquinha - Duquinha
DYEAR=2004
DGENRE=Forró
TTITLE0=Abertura
TTITLE1=Pajero
TTITLE2=Rola do Forró
TTITLE3=Fome de Amor
TTITLE4=Resposta da Corrinha
TTITLE5=A Masoquista
TTITLE6=Você Não Me Ensinou a te esquecer
TTITLE7=Ligação Urbana
TTITLE8=Pra mudar minha vida
TTITLE9=Preciso de um tempo
TTITLE10=Cofrinho do amor
TTITLE11=Cristal quebrado
TTITLE12=Zezo dos teclados
TTITLE13=Amigos para sempre
TTITLE14=Toca fita do meu carro
TTITLE15=Amor
TTITLE16=Sendo assim
TTITLE17=Um homem como eu
TTITLE18=Quando você foi embora
TTITLE19=Paixão Errante
TTITLE20=Cheiro de Menina
TTITLE21=A selva
TTITLE22=Meu combustivel
TTITLE23=Diga pra mim
TTITLE24=Agradecimento
TTITLE25=Me leve com você
TTITLE26=Me mande embora
TTITLE27=Coração pecador
TTITLE28=Agradecimento
EXTD=A musica da Pajero eh loka
EXTT0=
EXTT1=
EXTT2=
EXTT3=
EXTT4=
EXTT5=
EXTT6=
EXTT7=
EXTT8=
EXTT9=
EXTT10=
EXTT11=
EXTT12=
EXTT13=
EXTT14=
EXTT15=
EXTT16=
EXTT17=
EXTT18=
EXTT19=
EXTT20=
EXTT21=
EXTT22=
EXTT23=
EXTT24=
EXTT25=
EXTT26=
EXTT27=
EXTT28=
PLAYORDER=
